<!-- icon666.com - MILLIONS vector ICONS FREE --><svg xmlns="http://www.w3.org/2000/svg" viewBox="0 0 100 100"><g id="Layer_2" data-name="Layer 2"><path d="M18,94.5H82A2.5,2.5,0,0,0,84.5,92V26.5A2.5,2.5,0,0,0,82,24H70.5V18.04A12.54635,12.54635,0,0,0,57.96,5.5H42.04A12.54635,12.54635,0,0,0,29.5,18.04V24H18a2.5,2.5,0,0,0-2.5,2.5V92A2.5,2.5,0,0,0,18,94.5ZM34.5,18.04a7.54634,7.54634,0,0,1,7.54-7.54H57.96a7.54634,7.54634,0,0,1,7.54,7.54V24h-31ZM66.58575,45.58575A2.00018,2.00018,0,1,1,66,47,1.98269,1.98269,0,0,1,66.58575,45.58575ZM30.2323,45.2323A2.49968,2.49968,0,1,1,29.5,47,2.481,2.481,0,0,1,30.2323,45.2323ZM20.5,29h9V39.93689a7.52217,7.52217,0,1,0,5,0V29h31V40.46881a7.02108,7.02108,0,1,0,5,0V29h9V89.5h-59Z"></path></g></svg>