<!-- icon666.com - MILLIONS vector ICONS FREE --><svg id="Layer_1" enable-background="new 0 0 512 512" viewBox="0 0 512 512" xmlns="http://www.w3.org/2000/svg"><path d="m255.986 245.138c-33.263 0-60.986-16.443-80.173-47.551-14.681-23.803-23.446-55.973-23.446-86.057-.001-57.086 46.483-103.53 103.619-103.53 57.151 0 103.647 46.444 103.647 103.531 0 31.312-8.84 63.151-24.254 87.351-19.274 30.262-46.728 46.256-79.393 46.256zm0-213.138c-43.902 0-79.619 35.677-79.619 79.531 0 25.822 7.429 53.282 19.873 73.457 14.795 23.987 34.896 36.15 59.746 36.15 30.385 0 48.937-19.114 59.15-35.149 12.835-20.151 20.498-47.986 20.498-74.458-.001-43.854-35.73-79.531-79.648-79.531zm208.549 472h-417.07v-136.414c0-56.853 49.463-103.106 110.261-103.106h196.549c60.798 0 110.261 46.253 110.261 103.106v136.414zm-393.07-24h369.071v-112.414c0-43.619-38.696-79.106-86.261-79.106h-196.55c-47.564 0-86.261 35.487-86.261 79.106v112.414z"></path></svg>